<?xml version="1.0" encoding="UTF-8"?><svg id="a" xmlns="http://www.w3.org/2000/svg" xmlns:xlink="http://www.w3.org/1999/xlink" viewBox="0 0 841.89 595.28"><defs><linearGradient id="b" x1="420.94" y1="387.94" x2="420.94" y2="161.48" gradientUnits="userSpaceOnUse"><stop offset="0" stop-color="#ffdd08"/><stop offset=".85" stop-color="#fab70f"/></linearGradient><linearGradient id="c" x1="420.94" y1="387.94" x2="420.94" y2="161.48" xlink:href="#b"/><linearGradient id="d" x1="278.82" y1="272.27" x2="563.25" y2="272.27" gradientUnits="userSpaceOnUse"><stop offset=".05" stop-color="#00017a"/><stop offset=".2" stop-color="#1237a1"/><stop offset=".22" stop-color="#1139a2"/><stop offset=".23" stop-color="#0f42a8"/><stop offset=".24" stop-color="#0d51b1"/><stop offset=".25" stop-color="#0967bf"/><stop offset=".26" stop-color="#0482d0"/><stop offset=".26" stop-color="#009fe3"/><stop offset=".28" stop-color="#067acb"/><stop offset=".29" stop-color="#0b5cb9"/><stop offset=".31" stop-color="#0f47ab"/><stop offset=".32" stop-color="#113ba3"/><stop offset=".33" stop-color="#1237a1"/><stop offset=".38" stop-color="#10329d"/><stop offset=".75" stop-color="#040e83"/><stop offset=".94" stop-color="#00017a"/></linearGradient></defs><line x1="446.33" y1="255.65" x2="443.42" y2="252.79" fill="none"/><path d="m579.7,110.7h-317.5c-19.28,0-35.4,14.05-38.72,32.41h394.94c-3.32-18.36-19.44-32.41-38.72-32.41Z" fill="url(#b)"/><path d="m222.82,337.91c0,21.66,17.72,39.38,39.38,39.38h317.5c21.66,0,39.38-17.72,39.38-39.38v-161.21H222.82v161.21Z" fill="url(#c)"/><path d="m303.28,429.96v32.6h-13.31v-32.6c0-6.85-5.57-12.4-12.42-12.4s-12.4,5.55-12.4,12.4v32.6h-13.31v-32.6c0-14.18,11.55-25.71,25.71-25.71s25.73,11.53,25.73,25.71Z" fill="#00017a"/><rect x="231.86" y="404.25" width="13.31" height="58.32" fill="#00017a"/><path d="m233.83,395.65c-1.24-1.24-1.96-2.94-1.96-4.7,0-.43.06-.87.13-1.3.09-.43.22-.83.39-1.24.17-.41.37-.8.61-1.15.24-.37.52-.7.83-1.02.3-.3.65-.59,1-.81.37-.26.74-.46,1.15-.63.41-.15.83-.3,1.24-.37.87-.17,1.74-.17,2.61,0,.43.07.85.22,1.24.37.41.17.8.37,1.15.63.37.22.7.52,1.02.81.3.31.57.65.83,1.02.22.35.43.74.61,1.15.17.41.28.81.37,1.24.09.43.13.87.13,1.3s-.04.87-.13,1.3-.2.85-.37,1.26c-.19.39-.39.78-.61,1.15-.26.37-.54.7-.83,1-1.24,1.24-2.96,1.94-4.72,1.94-.43,0-.87-.04-1.3-.11-.41-.09-.83-.22-1.24-.39-.41-.17-.78-.37-1.15-.61-.35-.24-.7-.52-1-.83Z" fill="#00017a"/><path d="m361.36,429.96v32.6h-13.31v-32.6c0-6.85-5.57-12.4-12.4-12.4s-12.42,5.55-12.42,12.4v32.6h-13.29v-32.6c0-14.18,11.53-25.71,25.71-25.71s25.71,11.53,25.71,25.71Z" fill="#00017a"/><path d="m397.18,404.25c-16.09,0-29.18,13.09-29.18,29.16s13.09,29.16,29.18,29.16,29.14-13.09,29.14-29.16-13.07-29.16-29.14-29.16Zm0,45.49c-9.02,0-16.33-7.33-16.33-16.33s7.31-16.33,16.33-16.33,16.31,7.33,16.31,16.33-7.31,16.33-16.31,16.33Z" fill="#00017a"/><path d="m527.18,404.27c-16.07,0-29.16,13.07-29.16,29.16s13.09,29.16,29.16,29.16c6.04,0,11.66-1.85,16.33-5.02v5.02h12.83v-29.16c0-16.09-13.09-29.16-29.16-29.16Zm0,45.47c-9,0-16.33-7.31-16.33-16.31s7.33-16.33,16.33-16.33,16.33,7.31,16.33,16.33-7.33,16.31-16.33,16.31Z" fill="#00017a"/><path d="m462.18,404.21c-16.11,0-29.19,13.09-29.19,29.19v51.17h12.85v-26.99c4.67,3.17,10.29,5.02,16.35,5.02,16.09,0,29.19-13.11,29.19-29.19s-13.11-29.19-29.19-29.19Zm0,45.54c-9.02,0-16.35-7.33-16.35-16.35s7.33-16.35,16.35-16.35,16.35,7.33,16.35,16.35-7.33,16.35-16.35,16.35Z" fill="#00017a"/><path d="m616.6,404.27c0,14.03-10.11,25.77-23.59,28.71v29.58h-13.31v-29.58c-13.48-2.94-23.59-14.7-23.59-28.71h13.31c0,9.11,7.59,16.49,16.94,16.49s16.92-7.39,16.92-16.49h13.31Z" fill="#00017a"/><path d="m565.1,276.58c0,34.51-28.21,62.6-62.89,62.6-16.6,0-32.26-6.38-44.09-17.96l-29.71-29.15-15.79-15.49-29.39-28.85c-7.66-7.5-17.83-11.64-28.61-11.64-16.55,0-30.82,9.83-37.22,23.92h13.32v11.04h-16.5c-.26,1.8-.38,3.65-.38,5.53s.12,3.72.38,5.52h16.5v11.05h-13.32c6.39,14.08,20.68,23.91,37.22,23.91,11.03,0,21.37-4.3,29.1-12.12l.12-.12,20.89-20.5,15.78,15.5-21.13,20.73c-11.91,12.01-27.8,18.63-44.76,18.63-28.93,0-53.35-19.53-60.66-46.03h-13.29v-11.05h11.3c-.17-1.82-.25-3.66-.25-5.52s.08-3.71.25-5.53h-11.3v-11.04h13.29c7.31-26.51,31.73-46.03,60.66-46.03,16.59,0,32.25,6.38,44.08,17.95l29.71,29.15,45.18,44.34c7.66,7.49,17.84,11.63,28.62,11.63,22.49,0,40.78-18.16,40.78-40.48s-18.29-40.49-40.78-40.49c-11.04,0-21.37,4.3-29.11,12.13l-8.1,7.94,9.6,9.59h-35.39v-35.38l10.15,10.15,8.13-7.98c11.8-11.93,27.71-18.57,44.71-18.57,34.68,0,62.89,28.08,62.89,62.6Z" fill="#cc980f"/><path d="m563.25,272.27c0,34.51-28.21,62.6-62.89,62.6-16.6,0-32.26-6.38-44.09-17.96l-29.71-29.15-15.79-15.49-29.39-28.85c-7.66-7.5-17.83-11.64-28.61-11.64-16.55,0-30.82,9.83-37.22,23.92h13.32v11.04h-16.5c-.26,1.8-.38,3.65-.38,5.53s.12,3.72.38,5.52h16.5v11.05h-13.32c6.39,14.08,20.68,23.91,37.22,23.91,11.03,0,21.37-4.3,29.1-12.12l.12-.12,20.89-20.5,15.78,15.5-21.13,20.73c-11.91,12.01-27.8,18.63-44.76,18.63-28.93,0-53.35-19.53-60.66-46.03h-13.29v-11.05h11.3c-.17-1.82-.25-3.66-.25-5.52s.08-3.71.25-5.53h-11.3v-11.04h13.29c7.31-26.51,31.73-46.03,60.66-46.03,16.59,0,32.25,6.38,44.08,17.95l29.71,29.15,45.18,44.34c7.66,7.49,17.84,11.63,28.62,11.63,22.49,0,40.78-18.16,40.78-40.48s-18.29-40.49-40.78-40.49c-11.04,0-21.37,4.3-29.11,12.13l-8.1,7.94,9.6,9.59h-35.39v-35.38l10.15,10.15,8.13-7.98c11.8-11.93,27.71-18.57,44.71-18.57,34.68,0,62.89,28.08,62.89,62.6Z" fill="url(#d)"/></svg>